<svg id="Layer_1" viewBox="0 0 24 24" xmlns="http://www.w3.org/2000/svg" data-name="Layer 1"><path d="m8 13c2.757 0 5-2.243 5-5s-2.243-5-5-5-5 2.243-5 5 2.243 5 5 5zm0-8c1.654 0 3 1.346 3 3s-1.346 3-3 3-3-1.346-3-3 1.346-3 3-3zm8 15v4h-2v-4c0-1.654-1.346-3-3-3h-1l-1.273 1.909 1.273 5.091h-4l1.273-5.091-1.273-1.909h-1c-1.654 0-3 1.346-3 3v4h-2v-4c0-2.757 2.243-5 5-5h6c2.757 0 5 2.243 5 5zm4.651-14.305c-.728-1.632-1.729-3.111-2.946-4.386l1.32-1.309c1.425 1.425 2.573 3.057 3.411 4.871zm3.349 9.948-1.015 1.715-6.023-3.614c-.287.159-.611.257-.962.257-1.105 0-2-.895-2-2s.895-2 2-2 2 .895 2 2c0 .011-.003.021-.003.032l6.003 3.611zm-2.632-8.002 1.903-.576c.484 1.599.729 3.362.729 4.935 0 0-.019.849-.051 1.271l-1.958-1.175c.031-1.517-.287-3.285-.623-4.454zm-.694 10.662 1.67 1.002c-.83 1.743-1.942 3.317-3.32 4.695l-1.32-1.309c1.164-1.219 2.241-2.825 2.969-4.388z"/></svg>