<svg id="Layer_1" viewBox="0 0 24 24" xmlns="http://www.w3.org/2000/svg" data-name="Layer 1"><path d="m22 18v-12h-4.904c.135.674.24 1.341.308 2h2.596v10h-4.914l-1 1h-4.172l-1-1h-4.914v-10h2.595c.067-.666.171-1.332.303-2h-4.898v12h-2v3c0 1.654 1.346 3 3 3h18c1.654 0 3-1.346 3-3v-3zm0 3c0 .551-.448 1-1 1h-18c-.552 0-1-.449-1-1v-1h6.086l1 1h5.828l1-1h6.086zm-14.881-7.193 1.193 1.193 1.963-1.963h.725v1.963h2v-1.963h.738l1.963 1.963 1.198-1.198c.307-1.792-.078-3.624-1.416-5.013-.155-2.507-.871-5.057-2.256-8.006-.136-.288-.37-.52-.649-.649-.33-.155-.696-.176-1.033-.055-.338.121-.62.377-.774.704-1.378 2.929-2.092 5.466-2.251 8.004-1.345 1.406-1.706 3.243-1.401 5.021zm4.88-10.861c.924 2.229 1.405 4.201 1.501 6.091v2h-3v-1.951c.093-1.933.574-3.911 1.499-6.14z"/></svg>