<?xml version="1.0" encoding="UTF-8"?>
<svg xmlns="http://www.w3.org/2000/svg" id="Layer_1" data-name="Layer 1" viewBox="0 0 24 24">
  <path d="m21,0H3C1.346,0,0,1.346,0,3v5h1v16h10.344c-.705-.57-1.322-1.245-1.828-2H3v-14h18v.936c.728.362,1.4.819,2,1.356v-2.292h1V3c0-1.654-1.346-3-3-3ZM2,3c0-.551.448-1,1-1h18c.552,0,1,.449,1,1v3H2v-3Zm15,7c-3.859,0-7,3.14-7,7s3.141,7,7,7,7-3.14,7-7-3.141-7-7-7Zm-5,7c0-1.017.309-1.963.833-2.753l6.919,6.92c-.79.524-1.735.833-2.753.833-2.757,0-5-2.243-5-5Zm9.167,2.753l-6.919-6.92c.79-.524,1.735-.833,2.753-.833,2.757,0,5,2.243,5,5,0,1.017-.309,1.963-.833,2.753Z"/>
</svg>
