<svg id="Layer_1" viewBox="0 0 24 24" xmlns="http://www.w3.org/2000/svg" data-name="Layer 1"><path d="m24 12.5c0 2.872-1.624 5.369-4 6.628v-2.389c1.221-1.01 2-2.535 2-4.239 0-2.987-2.337-5.401-5.321-5.497l-.721-.023-.206-.692c-.75-2.525-3.115-4.289-5.752-4.289-3.309 0-6 2.691-6 6 0 .734.132 1.452.391 2.134l.318.838-.798.408c-1.179.602-1.911 1.797-1.911 3.12 0 1.519.839 2.802 2 3.285v2.104c-2.279-.511-4-2.733-4-5.389 0-1.786.851-3.425 2.266-4.451-.177-.666-.266-1.353-.266-2.049 0-4.41 3.589-7.999 8-7.999 3.281 0 6.246 2.048 7.44 5.059 3.73.459 6.56 3.604 6.56 7.441zm-6 4.63v6.87h-12v-6.87c0-.615.283-1.196.767-1.575l4-3.13c.724-.567 1.741-.567 2.465 0l4 3.13c.484.379.767.96.767 1.575zm-5 4.87c0-.552-.448-1-1-1s-1 .448-1 1 .448 1 1 1 1-.448 1-1zm.696-1.198 1.132-1.13c-1.559-1.56-4.097-1.56-5.657 0l1.132 1.131c.936-.936 2.457-.936 3.393 0s.001 0 .001 0zm2.901-2.898c-1.227-1.228-2.86-1.904-4.596-1.904s-3.368.676-4.596 1.904l1.132 1.131c.925-.925 2.155-1.435 3.464-1.435s2.539.51 3.464 1.435z"/></svg>