<?xml version="1.0" encoding="UTF-8"?>
<svg xmlns="http://www.w3.org/2000/svg" id="Layer_1" data-name="Layer 1" viewBox="0 0 24 24">
  <path d="M7,7h-1.5v-2H3.5v2h-1.5v-2H0v2c0,.91,.615,1.671,1.448,1.913l-.408,7.344c-.617,.341-1.04,.99-1.04,1.743v1H9v-1c0-.753-.423-1.402-1.04-1.743l-.408-7.344c.833-.241,1.448-1.003,1.448-1.913v-2h-2v2Zm-1.446,2l.389,7H3.057l.389-7h2.108ZM19,3c0-1.381,1.119-2.5,2.5-2.5s2.5,1.119,2.5,2.5-1.119,2.5-2.5,2.5-2.5-1.119-2.5-2.5Zm5,9c0,1.381-1.119,2.5-2.5,2.5s-2.5-1.119-2.5-2.5,1.119-2.5,2.5-2.5,2.5,1.119,2.5,2.5Zm0,9c0,1.381-1.119,2.5-2.5,2.5s-2.5-1.119-2.5-2.5,1.119-2.5,2.5-2.5,2.5,1.119,2.5,2.5ZM15,2h2v2h-2c-.551,0-1,.448-1,1v6h3v2h-3v6c0,.552,.449,1,1,1h2v2h-2c-1.654,0-3-1.346-3-3v-6h-2v-2h2V5c0-1.654,1.346-3,3-3Z"/>
</svg>
