<?xml version="1.0" encoding="UTF-8"?>
<svg xmlns="http://www.w3.org/2000/svg" id="Layer_1" data-name="Layer 1" viewBox="0 0 24 24">
  <path d="M20.744,11.67l1.425-1.425c.948,1.2,1.579,2.659,1.767,4.254h-2.021c-.162-1.047-.572-2.01-1.171-2.83Zm0,7.659l1.425,1.425c.948-1.2,1.579-2.659,1.767-4.254h-2.021c-.162,1.047-.572,2.01-1.171,2.83Zm-10.498,2.839c1.2,.948,2.659,1.579,4.254,1.767v-2.021c-1.047-.162-2.01-.572-2.83-1.171l-1.425,1.425Zm6.254-.253v2.021c1.595-.188,3.054-.819,4.254-1.767l-1.425-1.425c-.819,.599-1.782,1.009-2.83,1.171Zm.465-12.726c-.334,4.137-3.639,7.442-7.776,7.776,.203,.864,.561,1.669,1.07,2.364-.001,0-.002,0-.003,0l-1.424,1.424c-.873-1.105-1.478-2.43-1.716-3.877C3.086,16.212,0,12.714,0,8.5,0,3.813,3.813,0,8.5,0c4.214,0,7.712,3.086,8.377,7.115,1.447,.239,2.772,.844,3.877,1.716l-1.425,1.425s0,.002,0,.003c-.695-.509-1.5-.867-2.364-1.07ZM7.034,14.827c.328-4.15,3.643-7.465,7.793-7.793-.667-2.879-3.248-5.034-6.327-5.034-3.584,0-6.5,2.916-6.5,6.5,0,3.079,2.155,5.66,5.034,6.327Zm7.939-5.799c-.053,.004-1.153,.087-2.002,.484-1.529,.714-2.771,1.918-3.459,3.459-.551,1.234-.48,1.949-.484,2.002,3.162-.256,5.688-2.782,5.945-5.945Z"/>
</svg>
